<?xml version="1.0" encoding="UTF-8" standalone="no"?>
<!-- Generator: Adobe Illustrator 19.2.1, SVG Export Plug-In . SVG Version: 6.00 Build 0)  -->

<svg
   xmlns:dc="http://purl.org/dc/elements/1.1/"
   xmlns:cc="http://creativecommons.org/ns#"
   xmlns:rdf="http://www.w3.org/1999/02/22-rdf-syntax-ns#"
   xmlns:svg="http://www.w3.org/2000/svg"
   xmlns="http://www.w3.org/2000/svg"
   xmlns:sodipodi="http://sodipodi.sourceforge.net/DTD/sodipodi-0.dtd"
   xmlns:inkscape="http://www.inkscape.org/namespaces/inkscape"
   version="1.1"
   id="Layer_1"
   x="0px"
   y="0px"
   viewBox="0 0 1200 800"
   style="enable-background:new 0 0 1200 800;"
   xml:space="preserve"
   sodipodi:docname="surroundings.svg"
   inkscape:version="0.92.4 (5da689c313, 2019-01-14)"><metadata
   id="metadata3989"><rdf:RDF><cc:Work
       rdf:about=""><dc:format>image/svg+xml</dc:format><dc:type
         rdf:resource="http://purl.org/dc/dcmitype/StillImage" /></cc:Work></rdf:RDF></metadata><defs
   id="defs3987">
	
	
	
	
</defs><sodipodi:namedview
   pagecolor="#ffffff"
   bordercolor="#666666"
   borderopacity="1"
   objecttolerance="10"
   gridtolerance="10"
   guidetolerance="10"
   inkscape:pageopacity="0"
   inkscape:pageshadow="2"
   inkscape:window-width="1366"
   inkscape:window-height="705"
   id="namedview3985"
   showgrid="false"
   inkscape:zoom="0.67"
   inkscape:cx="600"
   inkscape:cy="400"
   inkscape:window-x="-8"
   inkscape:window-y="-8"
   inkscape:window-maximized="1"
   inkscape:current-layer="Layer_1" />
<style
   type="text/css"
   id="style3912">
	.st0{fill:#DCDBDB;}
	.st1{fill:none;stroke:#FFFFFF;stroke-width:20;}
	.st2{fill:#BCBCBC;}
	.st3{fill:#A5D5A1;}
	.st4{fill:#9BD9E3;}
	.st5{fill:#636363;}
</style>
<path
   class="st0"
   d="M1200,116.8H0V-3.1h1200V116.8z"
   id="path3914" />
<path
   class="st1"
   d="M1200,56.9H0"
   id="path3916" />
<path
   class="st2"
   d="M1055.9,793.9H912.8V196.7h143.1V793.9z"
   id="path3918" />
<path
   class="st2"
   d="M1200,585.2h-127V196.7h127V585.2z"
   id="path3920" />
<path
   class="st2"
   d="M896.7,736.6H781.3v-36.2h115.4V736.6z"
   id="path3922" />
<circle
   class="st3"
   cx="273.1"
   cy="743"
   r="51.1"
   id="circle3924" />
<path
   class="st2"
   d="M284.8,235h-86.9v-94.4h86.9V235z"
   id="path3926" />
<path
   class="st0"
   d="M130.5,801.1H0V117h130.5V801.1z"
   id="path3928" />
<path
   class="st1"
   d="M65.2,796.9v-734"
   id="path3930" />
<path
   class="st2"
   d="M284.8,505.8h-43.4V255h43.4V505.8z"
   id="path3932" />
<path
   class="st2"
   d="M221.1,505.7h-68.8V255.1h68.8V505.7z"
   id="path3934" />
<path
   class="st2"
   d="M182.6,196.7h-30.3v-57.5h30.3V196.7z"
   id="path3936" />
<path
   class="st2"
   d="M770.7,736.6H655.3v-36.2h115.4V736.6z"
   id="path3938" />
<path
   class="st2"
   d="M896.7,783.1H781.3v-36.2h115.4V783.1z"
   id="path3940" />
<path
   class="st2"
   d="M770.7,783.1H655.3v-36.2h115.4V783.1z"
   id="path3942" />
<path
   class="st4"
   d="M1170.7,770.4c-30.4,23.4-88.2,6.4-96.9-18.4c-7.7-22,25.6-43.5,15-75.2c-3.8-11.5-10.9-16.8-11.7-31.7  c-0.1-2.4-1-24,10-31.7c16.5-11.6,57.1,9.5,78.5,38.4C1189.7,684.3,1203.3,745.2,1170.7,770.4z"
   id="path3944" />
<circle
   class="st3"
   cx="190.6"
   cy="578.6"
   r="42.8"
   id="circle3946" />
<circle
   class="st3"
   cx="1158"
   cy="156.8"
   r="30"
   id="circle3948" />
<circle
   class="st3"
   cx="1086"
   cy="156.8"
   r="30"
   id="circle3950" />
<circle
   class="st3"
   cx="1011.7"
   cy="156.8"
   r="30"
   id="circle3952" />
<path
   class="st2"
   d="M637.5,783.1H340.3v-80.8h297.2V783.1z"
   id="path3954" />
<circle
   class="st3"
   cx="176.3"
   cy="751.5"
   r="27.1"
   id="circle3956" />
<path
   class="st0"
   d="M898.6,683.5H127V641h771.6V683.5z"
   id="path3958" />
<circle
   class="st3"
   cx="265.1"
   cy="595.7"
   r="22.7"
   id="circle3960" />
<circle
   class="st3"
   cx="940.8"
   cy="156.8"
   r="30"
   id="circle3962" />
<path
   style="fill:#636363"
   inkscape:connector-curvature="0"
   id="path3964"
   d="m 248.21493,192.70746 v -14.8 c 0,-2 -1.6,-3.6 -3.6,-3.6 h -4.4 v -2 h 4 v -2 h -12 v 2 h 4 v 2 h -4.4 c -2,0 -3.6,1.6 -3.6,3.6 v 14.8 c 0,2 1.6,3.6 3.6,3.6 h 0.4 l -1.4,2 h -2.6 v 2 h 1.4 l -1.4,2 h 4 l 1.2,-2 h 9.8 l 1.2,2 h 4 l -1.4,-2 h 1.2 v -2 h -2.6 l -1.4,-2 h 0.4 c 2,0 3.6,-1.6 3.6,-3.6 z m -18,-14.6 c 0,-1 0.8,-1.8 1.8,-1.8 h 12.2 c 1.2,0 2,0.8 2,1.8 v 4.2 c 0,1.2 -0.8,2 -1.8,2 h -12.4 c -1,0 -1.8,-0.8 -1.8,-1.8 0,0 0,-4.4 0,-4.4 z m 0,14.2 c 0,-1.2 0.8,-2 2,-2 1.2,0 2,0.8 2,2 0,1.2 -0.8,2 -2,2 -1.2,0 -2,-0.8 -2,-2 z m 11.8,6 h -7.6 l 1.2,-2 h 5.2 z m 0.2,-6 c 0,-1.2 0.8,-2 2,-2 1.2,0 2,0.8 2,2 0,1.2 -0.8,2 -2,2 -1.2,0 -2,-0.8 -2,-2 z"
   class="st5" /><g
   id="g3978"
   transform="translate(-2.9850746,-1.4925373)">
		<path
   style="fill:#636363"
   inkscape:connector-curvature="0"
   id="path3968"
   d="m 175.8,373.3 c 0.2,0 0.3,0 0.6,0 1,0 1.8,-0.2 2.4,-0.8 0.4,-0.4 0.7,-1 0.7,-1.7 0,-0.7 -0.3,-1.3 -0.8,-1.7 -0.5,-0.4 -1.2,-0.6 -2.2,-0.6 -1,0 -1.7,0.1 -2.2,0.2 v 7.2 h 1.6 z m 0,-3.4 c 0.1,0 0.3,-0.1 0.7,-0.1 0.8,0 1.3,0.4 1.3,1.1 0,0.7 -0.5,1.2 -1.4,1.2 -0.2,0 -0.4,0 -0.6,0 z"
   class="st5" />
		<path
   style="fill:#636363"
   inkscape:connector-curvature="0"
   id="path3970"
   d="m 172.7,378.2 h 8.1 c 1,0 1.9,-0.8 1.9,-1.9 v -8.1 c 0,-1 -0.8,-1.9 -1.9,-1.9 h -8.1 c -1,0 -1.9,0.8 -1.9,1.9 v 8.1 c 0.1,1.1 0.9,1.9 1.9,1.9 z m -0.4,-9.9 c 0,-0.3 0.2,-0.5 0.5,-0.5 h 7.9 c 0.3,0 0.5,0.2 0.5,0.5 v 7.9 c 0,0.3 -0.2,0.5 -0.5,0.5 h -7.9 c -0.3,0 -0.5,-0.2 -0.5,-0.5 0,0 0,-7.9 0,-7.9 z"
   class="st5" />
		<path
   style="fill:#636363"
   inkscape:connector-curvature="0"
   id="path3972"
   d="m 178.4,388 c -1.8,0 -3.3,1.5 -3.3,3.3 0,1.8 1.5,3.3 3.3,3.3 1.8,0 3.3,-1.5 3.3,-3.3 0,-1.9 -1.5,-3.3 -3.3,-3.3 z m 0,4.2 c -0.5,0 -1,-0.4 -1,-1 0,-0.5 0.4,-1 1,-1 0.5,0 1,0.4 1,1 0,0.6 -0.4,1 -1,1 z"
   class="st5" />
		<path
   style="fill:#636363"
   inkscape:connector-curvature="0"
   id="path3974"
   d="m 202.2,388.5 -0.5,-4.3 c -0.1,-0.8 -0.8,-1.4 -1.7,-1.4 l -1.2,0.1 -3.6,-3.3 c -0.3,-0.3 -0.8,-0.5 -1.3,-0.5 h -7.4 c -1.7,0 -3.3,0.6 -4.5,1.6 l -4.1,3.3 -5.5,1.4 c -0.7,0.2 -1.2,0.8 -1.2,1.5 v 1.6 c -0.2,0 -0.4,0.2 -0.4,0.4 v 2.1 c 0,0.3 0.2,0.5 0.5,0.5 h 3.1 c 0,-0.1 0,-0.3 0,-0.4 0,-2.3 1.8,-4.1 4.1,-4.1 2.3,0 4.1,1.8 4.1,4.1 0,0.1 0,0.3 0,0.4 h 8.6 c 0,-0.1 0,-0.3 0,-0.4 0,-2.3 1.8,-4.1 4.1,-4.1 2.3,0 4.1,1.8 4.1,4.1 0,0.1 0,0.3 0,0.4 h 2.9 c 0.3,0 0.5,-0.2 0.5,-0.5 v -2 c -0.1,-0.2 -0.3,-0.5 -0.6,-0.5 z m -11,-5.3 -10.3,0.5 2,-1.6 c 1.1,-0.9 2.4,-1.3 3.8,-1.3 h 4.5 c 0,0 0,2.4 0,2.4 z m 1.7,-0.1 v -2.3 h 0.7 c 0.2,0 0.5,0.1 0.6,0.2 l 2.1,1.9 c 0,0.1 -3.4,0.2 -3.4,0.2 z"
   class="st5" />
		<path
   style="fill:#636363"
   inkscape:connector-curvature="0"
   id="path3976"
   d="m 195.2,388 c -1.8,0 -3.3,1.5 -3.3,3.3 0,1.8 1.5,3.3 3.3,3.3 1.8,0 3.3,-1.5 3.3,-3.3 -0.1,-1.9 -1.5,-3.3 -3.3,-3.3 z m 0,4.2 c -0.5,0 -1,-0.4 -1,-1 0,-0.5 0.4,-1 1,-1 0.5,0 1,0.4 1,1 0,0.6 -0.5,1 -1,1 z"
   class="st5" />
	</g><path
   style="fill:#636363"
   inkscape:connector-curvature="0"
   id="path3980"
   d="m 284.61493,750.80746 h -5.8 v -2.2 h 1.1 c 0.4,0 0.7,-0.3 0.7,-0.7 0,-0.4 -0.3,-0.7 -0.7,-0.7 h -3.7 c -0.4,0 -0.7,0.3 -0.7,0.7 0,0.4 0.3,0.7 0.7,0.7 h 1.1 v 2.2 h -11.6 v -5 h 5.8 c 0.3,0 0.6,-0.2 0.7,-0.4 0.1,-0.3 0.1,-0.6 -0.1,-0.8 l -3.7,-4 h 1.7 c 0.3,0 0.6,-0.2 0.7,-0.4 0.1,-0.3 0.1,-0.6 -0.1,-0.8 l -3.4,-3.7 h 1.7 c 0.3,0 0.6,-0.2 0.7,-0.4 0.1,-0.3 0.1,-0.6 -0.1,-0.8 l -4.7,-5 c -0.3,-0.3 -0.8,-0.3 -1.1,0 l -4.7,5 c -0.2,0.2 -0.2,0.5 -0.1,0.8 0.1,0.3 0.4,0.4 0.7,0.4 h 1.7 l -3.4,3.7 c -0.2,0.2 -0.2,0.5 -0.1,0.8 0.1,0.3 0.4,0.4 0.7,0.4 h 1.7 l -3.7,4 c -0.2,0.2 -0.2,0.5 -0.1,0.8 0.1,0.3 0.4,0.4 0.7,0.4 h 5.8 v 5 h -7.3 c -0.8,0 -1.5,0.7 -1.5,1.5 0,0.8 0.7,1.5 1.5,1.5 h 29.1 c 0.8,0 1.5,-0.7 1.5,-1.5 -0.2,-0.8 -0.9,-1.5 -1.7,-1.5 z"
   class="st5" />
</svg>